<svg class="rich-terminal" viewBox="0 0 994 635.5999999999999" xmlns="http://www.w3.org/2000/svg">
    <!-- Generated with Rich https://www.textualize.io -->
    <style>

    @font-face {
        font-family: "Fira Code";
        src: local("FiraCode-Regular"),
                url("https://cdnjs.cloudflare.com/ajax/libs/firacode/6.2.0/woff2/FiraCode-Regular.woff2") format("woff2"),
                url("https://cdnjs.cloudflare.com/ajax/libs/firacode/6.2.0/woff/FiraCode-Regular.woff") format("woff");
        font-style: normal;
        font-weight: 400;
    }
    @font-face {
        font-family: "Fira Code";
        src: local("FiraCode-Bold"),
                url("https://cdnjs.cloudflare.com/ajax/libs/firacode/6.2.0/woff2/FiraCode-Bold.woff2") format("woff2"),
                url("https://cdnjs.cloudflare.com/ajax/libs/firacode/6.2.0/woff/FiraCode-Bold.woff") format("woff");
        font-style: bold;
        font-weight: 700;
    }

    .terminal-4252448211-matrix {
        font-family: Fira Code, monospace;
        font-size: 20px;
        line-height: 24.4px;
        font-variant-east-asian: full-width;
    }

    .terminal-4252448211-title {
        font-size: 18px;
        font-weight: bold;
        font-family: arial;
    }

    .terminal-4252448211-r1 { fill: #121212 }
.terminal-4252448211-r2 { fill: #c5c8c6 }
.terminal-4252448211-r3 { fill: #e0e0e0;font-weight: bold }
.terminal-4252448211-r4 { fill: #ffc473 }
.terminal-4252448211-r5 { fill: #0178d4;font-weight: bold }
.terminal-4252448211-r6 { fill: #e0e0e0 }
.terminal-4252448211-r7 { fill: #e0e0e0;text-decoration: underline; }
.terminal-4252448211-r8 { fill: #000000 }
.terminal-4252448211-r9 { fill: #ddedf9;font-weight: bold }
.terminal-4252448211-r10 { fill: #4ebf71 }
.terminal-4252448211-r11 { fill: #8ad4a1;font-weight: bold }
.terminal-4252448211-r12 { fill: #0178d4;text-decoration: underline; }
.terminal-4252448211-r13 { fill: #ffa62b;font-weight: bold }
.terminal-4252448211-r14 { fill: #b47d2f;font-weight: bold }
.terminal-4252448211-r15 { fill: #a0a3a6 }
.terminal-4252448211-r16 { fill: #495259 }
    </style>

    <defs>
    <clipPath id="terminal-4252448211-clip-terminal">
      <rect x="0" y="0" width="975.0" height="584.5999999999999" />
    </clipPath>
    <clipPath id="terminal-4252448211-line-0">
    <rect x="0" y="1.5" width="976" height="24.65"/>
            </clipPath>
<clipPath id="terminal-4252448211-line-1">
    <rect x="0" y="25.9" width="976" height="24.65"/>
            </clipPath>
<clipPath id="terminal-4252448211-line-2">
    <rect x="0" y="50.3" width="976" height="24.65"/>
            </clipPath>
<clipPath id="terminal-4252448211-line-3">
    <rect x="0" y="74.7" width="976" height="24.65"/>
            </clipPath>
<clipPath id="terminal-4252448211-line-4">
    <rect x="0" y="99.1" width="976" height="24.65"/>
            </clipPath>
<clipPath id="terminal-4252448211-line-5">
    <rect x="0" y="123.5" width="976" height="24.65"/>
            </clipPath>
<clipPath id="terminal-4252448211-line-6">
    <rect x="0" y="147.9" width="976" height="24.65"/>
            </clipPath>
<clipPath id="terminal-4252448211-line-7">
    <rect x="0" y="172.3" width="976" height="24.65"/>
            </clipPath>
<clipPath id="terminal-4252448211-line-8">
    <rect x="0" y="196.7" width="976" height="24.65"/>
            </clipPath>
<clipPath id="terminal-4252448211-line-9">
    <rect x="0" y="221.1" width="976" height="24.65"/>
            </clipPath>
<clipPath id="terminal-4252448211-line-10">
    <rect x="0" y="245.5" width="976" height="24.65"/>
            </clipPath>
<clipPath id="terminal-4252448211-line-11">
    <rect x="0" y="269.9" width="976" height="24.65"/>
            </clipPath>
<clipPath id="terminal-4252448211-line-12">
    <rect x="0" y="294.3" width="976" height="24.65"/>
            </clipPath>
<clipPath id="terminal-4252448211-line-13">
    <rect x="0" y="318.7" width="976" height="24.65"/>
            </clipPath>
<clipPath id="terminal-4252448211-line-14">
    <rect x="0" y="343.1" width="976" height="24.65"/>
            </clipPath>
<clipPath id="terminal-4252448211-line-15">
    <rect x="0" y="367.5" width="976" height="24.65"/>
            </clipPath>
<clipPath id="terminal-4252448211-line-16">
    <rect x="0" y="391.9" width="976" height="24.65"/>
            </clipPath>
<clipPath id="terminal-4252448211-line-17">
    <rect x="0" y="416.3" width="976" height="24.65"/>
            </clipPath>
<clipPath id="terminal-4252448211-line-18">
    <rect x="0" y="440.7" width="976" height="24.65"/>
            </clipPath>
<clipPath id="terminal-4252448211-line-19">
    <rect x="0" y="465.1" width="976" height="24.65"/>
            </clipPath>
<clipPath id="terminal-4252448211-line-20">
    <rect x="0" y="489.5" width="976" height="24.65"/>
            </clipPath>
<clipPath id="terminal-4252448211-line-21">
    <rect x="0" y="513.9" width="976" height="24.65"/>
            </clipPath>
<clipPath id="terminal-4252448211-line-22">
    <rect x="0" y="538.3" width="976" height="24.65"/>
            </clipPath>
    </defs>

    <rect fill="#292929" stroke="rgba(255,255,255,0.35)" stroke-width="1" x="1" y="1" width="992" height="633.6" rx="8"/><text class="terminal-4252448211-title" fill="#c5c8c6" text-anchor="middle" x="496" y="27">DemoApp</text>
            <g transform="translate(26,22)">
            <circle cx="0" cy="0" r="7" fill="#ff5f57"/>
            <circle cx="22" cy="0" r="7" fill="#febc2e"/>
            <circle cx="44" cy="0" r="7" fill="#28c840"/>
            </g>
        
    <g transform="translate(9, 41)" clip-path="url(#terminal-4252448211-clip-terminal)">
    <rect fill="#1b1b1b" x="0" y="1.5" width="976" height="24.65" shape-rendering="crispEdges"/><rect fill="#1b1b1b" x="0" y="25.9" width="12.2" height="24.65" shape-rendering="crispEdges"/><rect fill="#1b1b1b" x="12.2" y="25.9" width="85.4" height="24.65" shape-rendering="crispEdges"/><rect fill="#1b1b1b" x="97.6" y="25.9" width="231.8" height="24.65" shape-rendering="crispEdges"/><rect fill="#1b1b1b" x="329.4" y="25.9" width="85.4" height="24.65" shape-rendering="crispEdges"/><rect fill="#1b1b1b" x="414.8" y="25.9" width="97.6" height="24.65" shape-rendering="crispEdges"/><rect fill="#1b1b1b" x="512.4" y="25.9" width="134.2" height="24.65" shape-rendering="crispEdges"/><rect fill="#1b1b1b" x="646.6" y="25.9" width="158.6" height="24.65" shape-rendering="crispEdges"/><rect fill="#1b1b1b" x="805.2" y="25.9" width="61" height="24.65" shape-rendering="crispEdges"/><rect fill="#1b1b1b" x="866.2" y="25.9" width="97.6" height="24.65" shape-rendering="crispEdges"/><rect fill="#1b1b1b" x="963.8" y="25.9" width="12.2" height="24.65" shape-rendering="crispEdges"/><rect fill="#1b1b1b" x="0" y="50.3" width="12.2" height="24.65" shape-rendering="crispEdges"/><rect fill="#1b1b1b" x="12.2" y="50.3" width="134.2" height="24.65" shape-rendering="crispEdges"/><rect fill="#1b1b1b" x="146.4" y="50.3" width="183" height="24.65" shape-rendering="crispEdges"/><rect fill="#1b1b1b" x="329.4" y="50.3" width="85.4" height="24.65" shape-rendering="crispEdges"/><rect fill="#1b1b1b" x="414.8" y="50.3" width="134.2" height="24.65" shape-rendering="crispEdges"/><rect fill="#1b1b1b" x="549" y="50.3" width="97.6" height="24.65" shape-rendering="crispEdges"/><rect fill="#1b1b1b" x="646.6" y="50.3" width="158.6" height="24.65" shape-rendering="crispEdges"/><rect fill="#1b1b1b" x="805.2" y="50.3" width="146.4" height="24.65" shape-rendering="crispEdges"/><rect fill="#1b1b1b" x="951.6" y="50.3" width="12.2" height="24.65" shape-rendering="crispEdges"/><rect fill="#1b1b1b" x="963.8" y="50.3" width="12.2" height="24.65" shape-rendering="crispEdges"/><rect fill="#1b1b1b" x="0" y="74.7" width="12.2" height="24.65" shape-rendering="crispEdges"/><rect fill="#1b1b1b" x="12.2" y="74.7" width="134.2" height="24.65" shape-rendering="crispEdges"/><rect fill="#1b1b1b" x="146.4" y="74.7" width="183" height="24.65" shape-rendering="crispEdges"/><rect fill="#1b1b1b" x="329.4" y="74.7" width="85.4" height="24.65" shape-rendering="crispEdges"/><rect fill="#1b1b1b" x="414.8" y="74.7" width="134.2" height="24.65" shape-rendering="crispEdges"/><rect fill="#1b1b1b" x="549" y="74.7" width="97.6" height="24.65" shape-rendering="crispEdges"/><rect fill="#1b1b1b" x="646.6" y="74.7" width="158.6" height="24.65" shape-rendering="crispEdges"/><rect fill="#1b1b1b" x="805.2" y="74.7" width="146.4" height="24.65" shape-rendering="crispEdges"/><rect fill="#1b1b1b" x="951.6" y="74.7" width="12.2" height="24.65" shape-rendering="crispEdges"/><rect fill="#1b1b1b" x="963.8" y="74.7" width="12.2" height="24.65" shape-rendering="crispEdges"/><rect fill="#1b1b1b" x="0" y="99.1" width="12.2" height="24.65" shape-rendering="crispEdges"/><rect fill="#1b1b1b" x="12.2" y="99.1" width="134.2" height="24.65" shape-rendering="crispEdges"/><rect fill="#1b1b1b" x="146.4" y="99.1" width="183" height="24.65" shape-rendering="crispEdges"/><rect fill="#1b1b1b" x="329.4" y="99.1" width="85.4" height="24.65" shape-rendering="crispEdges"/><rect fill="#1b1b1b" x="414.8" y="99.1" width="134.2" height="24.65" shape-rendering="crispEdges"/><rect fill="#1b1b1b" x="549" y="99.1" width="97.6" height="24.65" shape-rendering="crispEdges"/><rect fill="#1b1b1b" x="646.6" y="99.1" width="158.6" height="24.65" shape-rendering="crispEdges"/><rect fill="#1b1b1b" x="805.2" y="99.1" width="146.4" height="24.65" shape-rendering="crispEdges"/><rect fill="#1b1b1b" x="951.6" y="99.1" width="12.2" height="24.65" shape-rendering="crispEdges"/><rect fill="#1b1b1b" x="963.8" y="99.1" width="12.2" height="24.65" shape-rendering="crispEdges"/><rect fill="#1b1b1b" x="0" y="123.5" width="976" height="24.65" shape-rendering="crispEdges"/><rect fill="#121212" x="0" y="147.9" width="12.2" height="24.65" shape-rendering="crispEdges"/><rect fill="#121212" x="12.2" y="147.9" width="902.8" height="24.65" shape-rendering="crispEdges"/><rect fill="#121212" x="915" y="147.9" width="12.2" height="24.65" shape-rendering="crispEdges"/><rect fill="#121212" x="927.2" y="147.9" width="12.2" height="24.65" shape-rendering="crispEdges"/><rect fill="#003054" x="939.4" y="147.9" width="24.4" height="24.65" shape-rendering="crispEdges"/><rect fill="#121212" x="963.8" y="147.9" width="12.2" height="24.65" shape-rendering="crispEdges"/><rect fill="#121212" x="0" y="172.3" width="12.2" height="24.65" shape-rendering="crispEdges"/><rect fill="#121212" x="12.2" y="172.3" width="902.8" height="24.65" shape-rendering="crispEdges"/><rect fill="#121212" x="915" y="172.3" width="12.2" height="24.65" shape-rendering="crispEdges"/><rect fill="#121212" x="927.2" y="172.3" width="12.2" height="24.65" shape-rendering="crispEdges"/><rect fill="#003054" x="939.4" y="172.3" width="24.4" height="24.65" shape-rendering="crispEdges"/><rect fill="#121212" x="963.8" y="172.3" width="12.2" height="24.65" shape-rendering="crispEdges"/><rect fill="#121212" x="0" y="196.7" width="12.2" height="24.65" shape-rendering="crispEdges"/><rect fill="#121212" x="12.2" y="196.7" width="353.8" height="24.65" shape-rendering="crispEdges"/><rect fill="#121212" x="366" y="196.7" width="195.2" height="24.65" shape-rendering="crispEdges"/><rect fill="#121212" x="561.2" y="196.7" width="353.8" height="24.65" shape-rendering="crispEdges"/><rect fill="#121212" x="915" y="196.7" width="12.2" height="24.65" shape-rendering="crispEdges"/><rect fill="#121212" x="927.2" y="196.7" width="12.2" height="24.65" shape-rendering="crispEdges"/><rect fill="#003054" x="939.4" y="196.7" width="24.4" height="24.65" shape-rendering="crispEdges"/><rect fill="#121212" x="963.8" y="196.7" width="12.2" height="24.65" shape-rendering="crispEdges"/><rect fill="#121212" x="0" y="221.1" width="12.2" height="24.65" shape-rendering="crispEdges"/><rect fill="#121212" x="12.2" y="221.1" width="902.8" height="24.65" shape-rendering="crispEdges"/><rect fill="#121212" x="915" y="221.1" width="12.2" height="24.65" shape-rendering="crispEdges"/><rect fill="#121212" x="927.2" y="221.1" width="12.2" height="24.65" shape-rendering="crispEdges"/><rect fill="#003054" x="939.4" y="221.1" width="24.4" height="24.65" shape-rendering="crispEdges"/><rect fill="#121212" x="963.8" y="221.1" width="12.2" height="24.65" shape-rendering="crispEdges"/><rect fill="#121212" x="0" y="245.5" width="12.2" height="24.65" shape-rendering="crispEdges"/><rect fill="#121212" x="12.2" y="245.5" width="829.6" height="24.65" shape-rendering="crispEdges"/><rect fill="#121212" x="841.8" y="245.5" width="36.6" height="24.65" shape-rendering="crispEdges"/><rect fill="#121212" x="878.4" y="245.5" width="36.6" height="24.65" shape-rendering="crispEdges"/><rect fill="#121212" x="915" y="245.5" width="12.2" height="24.65" shape-rendering="crispEdges"/><rect fill="#121212" x="927.2" y="245.5" width="12.2" height="24.65" shape-rendering="crispEdges"/><rect fill="#003054" x="939.4" y="245.5" width="24.4" height="24.65" shape-rendering="crispEdges"/><rect fill="#121212" x="963.8" y="245.5" width="12.2" height="24.65" shape-rendering="crispEdges"/><rect fill="#121212" x="0" y="269.9" width="12.2" height="24.65" shape-rendering="crispEdges"/><rect fill="#121212" x="12.2" y="269.9" width="36.6" height="24.65" shape-rendering="crispEdges"/><rect fill="#121212" x="48.8" y="269.9" width="12.2" height="24.65" shape-rendering="crispEdges"/><rect fill="#121212" x="61" y="269.9" width="854" height="24.65" shape-rendering="crispEdges"/><rect fill="#121212" x="915" y="269.9" width="12.2" height="24.65" shape-rendering="crispEdges"/><rect fill="#121212" x="927.2" y="269.9" width="12.2" height="24.65" shape-rendering="crispEdges"/><rect fill="#003054" x="939.4" y="269.9" width="24.4" height="24.65" shape-rendering="crispEdges"/><rect fill="#121212" x="963.8" y="269.9" width="12.2" height="24.65" shape-rendering="crispEdges"/><rect fill="#121212" x="0" y="294.3" width="12.2" height="24.65" shape-rendering="crispEdges"/><rect fill="#121212" x="12.2" y="294.3" width="902.8" height="24.65" shape-rendering="crispEdges"/><rect fill="#121212" x="915" y="294.3" width="12.2" height="24.65" shape-rendering="crispEdges"/><rect fill="#121212" x="927.2" y="294.3" width="12.2" height="24.65" shape-rendering="crispEdges"/><rect fill="#003054" x="939.4" y="294.3" width="24.4" height="24.65" shape-rendering="crispEdges"/><rect fill="#121212" x="963.8" y="294.3" width="12.2" height="24.65" shape-rendering="crispEdges"/><rect fill="#121212" x="0" y="318.7" width="12.2" height="24.65" shape-rendering="crispEdges"/><rect fill="#121212" x="12.2" y="318.7" width="317.2" height="24.65" shape-rendering="crispEdges"/><rect fill="#121212" x="329.4" y="318.7" width="585.6" height="24.65" shape-rendering="crispEdges"/><rect fill="#121212" x="915" y="318.7" width="12.2" height="24.65" shape-rendering="crispEdges"/><rect fill="#121212" x="927.2" y="318.7" width="12.2" height="24.65" shape-rendering="crispEdges"/><rect fill="#003054" x="939.4" y="318.7" width="24.4" height="24.65" shape-rendering="crispEdges"/><rect fill="#121212" x="963.8" y="318.7" width="12.2" height="24.65" shape-rendering="crispEdges"/><rect fill="#121212" x="0" y="343.1" width="12.2" height="24.65" shape-rendering="crispEdges"/><rect fill="#121212" x="12.2" y="343.1" width="902.8" height="24.65" shape-rendering="crispEdges"/><rect fill="#121212" x="915" y="343.1" width="12.2" height="24.65" shape-rendering="crispEdges"/><rect fill="#121212" x="927.2" y="343.1" width="12.2" height="24.65" shape-rendering="crispEdges"/><rect fill="#003054" x="939.4" y="343.1" width="24.4" height="24.65" shape-rendering="crispEdges"/><rect fill="#121212" x="963.8" y="343.1" width="12.2" height="24.65" shape-rendering="crispEdges"/><rect fill="#121212" x="0" y="367.5" width="12.2" height="24.65" shape-rendering="crispEdges"/><rect fill="#272727" x="12.2" y="367.5" width="927.2" height="24.65" shape-rendering="crispEdges"/><rect fill="#000000" x="939.4" y="367.5" width="24.4" height="24.65" shape-rendering="crispEdges"/><rect fill="#121212" x="963.8" y="367.5" width="12.2" height="24.65" shape-rendering="crispEdges"/><rect fill="#121212" x="0" y="391.9" width="12.2" height="24.65" shape-rendering="crispEdges"/><rect fill="#0178d4" x="12.2" y="391.9" width="12.2" height="24.65" shape-rendering="crispEdges"/><rect fill="#0178d4" x="24.4" y="391.9" width="109.8" height="24.65" shape-rendering="crispEdges"/><rect fill="#0178d4" x="134.2" y="391.9" width="12.2" height="24.65" shape-rendering="crispEdges"/><rect fill="#272727" x="146.4" y="391.9" width="329.4" height="24.65" shape-rendering="crispEdges"/><rect fill="#343f49" x="475.8" y="391.9" width="12.2" height="24.65" shape-rendering="crispEdges"/><rect fill="#343f49" x="488" y="391.9" width="451.4" height="24.65" shape-rendering="crispEdges"/><rect fill="#343f49" x="939.4" y="391.9" width="12.2" height="24.65" shape-rendering="crispEdges"/><rect fill="#000000" x="951.6" y="391.9" width="12.2" height="24.65" shape-rendering="crispEdges"/><rect fill="#121212" x="963.8" y="391.9" width="12.2" height="24.65" shape-rendering="crispEdges"/><rect fill="#121212" x="0" y="416.3" width="12.2" height="24.65" shape-rendering="crispEdges"/><rect fill="#272727" x="12.2" y="416.3" width="463.6" height="24.65" shape-rendering="crispEdges"/><rect fill="#343f49" x="475.8" y="416.3" width="12.2" height="24.65" shape-rendering="crispEdges"/><rect fill="#343f49" x="488" y="416.3" width="12.2" height="24.65" shape-rendering="crispEdges"/><rect fill="#343f49" x="500.2" y="416.3" width="146.4" height="24.65" shape-rendering="crispEdges"/><rect fill="#343f49" x="646.6" y="416.3" width="292.8" height="24.65" shape-rendering="crispEdges"/><rect fill="#343f49" x="939.4" y="416.3" width="12.2" height="24.65" shape-rendering="crispEdges"/><rect fill="#000000" x="951.6" y="416.3" width="12.2" height="24.65" shape-rendering="crispEdges"/><rect fill="#121212" x="963.8" y="416.3" width="12.2" height="24.65" shape-rendering="crispEdges"/><rect fill="#121212" x="0" y="440.7" width="12.2" height="24.65" shape-rendering="crispEdges"/><rect fill="#272727" x="12.2" y="440.7" width="36.6" height="24.65" shape-rendering="crispEdges"/><rect fill="#272727" x="48.8" y="440.7" width="427" height="24.65" shape-rendering="crispEdges"/><rect fill="#343f49" x="475.8" y="440.7" width="12.2" height="24.65" shape-rendering="crispEdges"/><rect fill="#343f49" x="488" y="440.7" width="12.2" height="24.65" shape-rendering="crispEdges"/><rect fill="#343f49" x="500.2" y="440.7" width="414.8" height="24.65" shape-rendering="crispEdges"/><rect fill="#343f49" x="915" y="440.7" width="12.2" height="24.65" shape-rendering="crispEdges"/><rect fill="#343f49" x="927.2" y="440.7" width="12.2" height="24.65" shape-rendering="crispEdges"/><rect fill="#343f49" x="939.4" y="440.7" width="12.2" height="24.65" shape-rendering="crispEdges"/><rect fill="#000000" x="951.6" y="440.7" width="12.2" height="24.65" shape-rendering="crispEdges"/><rect fill="#121212" x="963.8" y="440.7" width="12.2" height="24.65" shape-rendering="crispEdges"/><rect fill="#121212" x="0" y="465.1" width="12.2" height="24.65" shape-rendering="crispEdges"/><rect fill="#272727" x="12.2" y="465.1" width="36.6" height="24.65" shape-rendering="crispEdges"/><rect fill="#272727" x="48.8" y="465.1" width="427" height="24.65" shape-rendering="crispEdges"/><rect fill="#343f49" x="475.8" y="465.1" width="12.2" height="24.65" shape-rendering="crispEdges"/><rect fill="#343f49" x="488" y="465.1" width="12.2" height="24.65" shape-rendering="crispEdges"/><rect fill="#343f49" x="500.2" y="465.1" width="183" height="24.65" shape-rendering="crispEdges"/><rect fill="#343f49" x="683.2" y="465.1" width="244" height="24.65" shape-rendering="crispEdges"/><rect fill="#343f49" x="927.2" y="465.1" width="12.2" height="24.65" shape-rendering="crispEdges"/><rect fill="#343f49" x="939.4" y="465.1" width="12.2" height="24.65" shape-rendering="crispEdges"/><rect fill="#000000" x="951.6" y="465.1" width="12.2" height="24.65" shape-rendering="crispEdges"/><rect fill="#121212" x="963.8" y="465.1" width="12.2" height="24.65" shape-rendering="crispEdges"/><rect fill="#121212" x="0" y="489.5" width="12.2" height="24.65" shape-rendering="crispEdges"/><rect fill="#272727" x="12.2" y="489.5" width="36.6" height="24.65" shape-rendering="crispEdges"/><rect fill="#272727" x="48.8" y="489.5" width="317.2" height="24.65" shape-rendering="crispEdges"/><rect fill="#272727" x="366" y="489.5" width="109.8" height="24.65" shape-rendering="crispEdges"/><rect fill="#343f49" x="475.8" y="489.5" width="12.2" height="24.65" shape-rendering="crispEdges"/><rect fill="#343f49" x="488" y="489.5" width="12.2" height="24.65" shape-rendering="crispEdges"/><rect fill="#343f49" x="500.2" y="489.5" width="414.8" height="24.65" shape-rendering="crispEdges"/><rect fill="#343f49" x="915" y="489.5" width="12.2" height="24.65" shape-rendering="crispEdges"/><rect fill="#343f49" x="927.2" y="489.5" width="12.2" height="24.65" shape-rendering="crispEdges"/><rect fill="#343f49" x="939.4" y="489.5" width="12.2" height="24.65" shape-rendering="crispEdges"/><rect fill="#000000" x="951.6" y="489.5" width="12.2" height="24.65" shape-rendering="crispEdges"/><rect fill="#121212" x="963.8" y="489.5" width="12.2" height="24.65" shape-rendering="crispEdges"/><rect fill="#121212" x="0" y="513.9" width="12.2" height="24.65" shape-rendering="crispEdges"/><rect fill="#272727" x="12.2" y="513.9" width="36.6" height="24.65" shape-rendering="crispEdges"/><rect fill="#272727" x="48.8" y="513.9" width="427" height="24.65" shape-rendering="crispEdges"/><rect fill="#343f49" x="475.8" y="513.9" width="12.2" height="24.65" shape-rendering="crispEdges"/><rect fill="#343f49" x="488" y="513.9" width="12.2" height="24.65" shape-rendering="crispEdges"/><rect fill="#343f49" x="500.2" y="513.9" width="24.4" height="24.65" shape-rendering="crispEdges"/><rect fill="#343f49" x="524.6" y="513.9" width="207.4" height="24.65" shape-rendering="crispEdges"/><rect fill="#343f49" x="732" y="513.9" width="195.2" height="24.65" shape-rendering="crispEdges"/><rect fill="#343f49" x="927.2" y="513.9" width="12.2" height="24.65" shape-rendering="crispEdges"/><rect fill="#343f49" x="939.4" y="513.9" width="12.2" height="24.65" shape-rendering="crispEdges"/><rect fill="#000000" x="951.6" y="513.9" width="12.2" height="24.65" shape-rendering="crispEdges"/><rect fill="#121212" x="963.8" y="513.9" width="12.2" height="24.65" shape-rendering="crispEdges"/><rect fill="#121212" x="0" y="538.3" width="12.2" height="24.65" shape-rendering="crispEdges"/><rect fill="#272727" x="12.2" y="538.3" width="36.6" height="24.65" shape-rendering="crispEdges"/><rect fill="#272727" x="48.8" y="538.3" width="427" height="24.65" shape-rendering="crispEdges"/><rect fill="#343f49" x="475.8" y="538.3" width="12.2" height="24.65" shape-rendering="crispEdges"/><rect fill="#343f49" x="488" y="538.3" width="427" height="24.65" shape-rendering="crispEdges"/><rect fill="#343f49" x="915" y="538.3" width="12.2" height="24.65" shape-rendering="crispEdges"/><rect fill="#343f49" x="927.2" y="538.3" width="12.2" height="24.65" shape-rendering="crispEdges"/><rect fill="#343f49" x="939.4" y="538.3" width="12.2" height="24.65" shape-rendering="crispEdges"/><rect fill="#000000" x="951.6" y="538.3" width="12.2" height="24.65" shape-rendering="crispEdges"/><rect fill="#121212" x="963.8" y="538.3" width="12.2" height="24.65" shape-rendering="crispEdges"/><rect fill="#242f38" x="0" y="562.7" width="36.6" height="24.65" shape-rendering="crispEdges"/><rect fill="#242f38" x="36.6" y="562.7" width="61" height="24.65" shape-rendering="crispEdges"/><rect fill="#242f38" x="97.6" y="562.7" width="36.6" height="24.65" shape-rendering="crispEdges"/><rect fill="#242f38" x="134.2" y="562.7" width="61" height="24.65" shape-rendering="crispEdges"/><rect fill="#242f38" x="195.2" y="562.7" width="36.6" height="24.65" shape-rendering="crispEdges"/><rect fill="#242f38" x="231.8" y="562.7" width="61" height="24.65" shape-rendering="crispEdges"/><rect fill="#242f38" x="292.8" y="562.7" width="36.6" height="24.65" shape-rendering="crispEdges"/><rect fill="#242f38" x="329.4" y="562.7" width="109.8" height="24.65" shape-rendering="crispEdges"/><rect fill="#242f38" x="439.2" y="562.7" width="36.6" height="24.65" shape-rendering="crispEdges"/><rect fill="#242f38" x="475.8" y="562.7" width="97.6" height="24.65" shape-rendering="crispEdges"/><rect fill="#242f38" x="573.4" y="562.7" width="48.8" height="24.65" shape-rendering="crispEdges"/><rect fill="#242f38" x="622.2" y="562.7" width="134.2" height="24.65" shape-rendering="crispEdges"/><rect fill="#242f38" x="756.4" y="562.7" width="48.8" height="24.65" shape-rendering="crispEdges"/><rect fill="#242f38" x="805.2" y="562.7" width="24.4" height="24.65" shape-rendering="crispEdges"/><rect fill="#242f38" x="829.6" y="562.7" width="12.2" height="24.65" shape-rendering="crispEdges"/><rect fill="#242f38" x="841.8" y="562.7" width="24.4" height="24.65" shape-rendering="crispEdges"/><rect fill="#242f38" x="866.2" y="562.7" width="48.8" height="24.65" shape-rendering="crispEdges"/><rect fill="#242f38" x="915" y="562.7" width="48.8" height="24.65" shape-rendering="crispEdges"/><rect fill="#242f38" x="963.8" y="562.7" width="12.2" height="24.65" shape-rendering="crispEdges"/>
    <g class="terminal-4252448211-matrix">
    <text class="terminal-4252448211-r1" x="0" y="20" textLength="976" clip-path="url(#terminal-4252448211-line-0)">▔▔▔▔▔▔▔▔▔▔▔▔▔▔▔▔▔▔▔▔▔▔▔▔▔▔▔▔▔▔▔▔▔▔▔▔▔▔▔▔▔▔▔▔▔▔▔▔▔▔▔▔▔▔▔▔▔▔▔▔▔▔▔▔▔▔▔▔▔▔▔▔▔▔▔▔▔▔▔▔</text><text class="terminal-4252448211-r2" x="976" y="20" textLength="12.2" clip-path="url(#terminal-4252448211-line-0)">
</text><text class="terminal-4252448211-r3" x="12.2" y="44.4" textLength="85.4" clip-path="url(#terminal-4252448211-line-1)">Version</text><text class="terminal-4252448211-r3" x="414.8" y="44.4" textLength="97.6" clip-path="url(#terminal-4252448211-line-1)">GitHub&#160;★</text><text class="terminal-4252448211-r3" x="805.2" y="44.4" textLength="61" clip-path="url(#terminal-4252448211-line-1)">Forks</text><text class="terminal-4252448211-r2" x="976" y="44.4" textLength="12.2" clip-path="url(#terminal-4252448211-line-1)">
</text><text class="terminal-4252448211-r4" x="12.2" y="68.8" textLength="134.2" clip-path="url(#terminal-4252448211-line-2)">╭─╮&#160;╶─╮&#160;╶─╮</text><text class="terminal-4252448211-r4" x="414.8" y="68.8" textLength="134.2" clip-path="url(#terminal-4252448211-line-2)">╶─╮╷&#160;╷&#160;╭─╴&#160;</text><text class="terminal-4252448211-r4" x="805.2" y="68.8" textLength="146.4" clip-path="url(#terminal-4252448211-line-2)">╶╮&#160;╶╮&#160;╭─╮╭─╮</text><text class="terminal-4252448211-r2" x="976" y="68.8" textLength="12.2" clip-path="url(#terminal-4252448211-line-2)">
</text><text class="terminal-4252448211-r4" x="12.2" y="93.2" textLength="134.2" clip-path="url(#terminal-4252448211-line-3)">├─┤&#160;┌─┘&#160;┌─┘</text><text class="terminal-4252448211-r4" x="414.8" y="93.2" textLength="134.2" clip-path="url(#terminal-4252448211-line-3)">&#160;─┤╰─┤&#160;╰─╮&#160;</text><text class="terminal-4252448211-r4" x="805.2" y="93.2" textLength="146.4" clip-path="url(#terminal-4252448211-line-3)">&#160;│&#160;&#160;│&#160;│&#160;│├─┤</text><text class="terminal-4252448211-r2" x="976" y="93.2" textLength="12.2" clip-path="url(#terminal-4252448211-line-3)">
</text><text class="terminal-4252448211-r4" x="12.2" y="117.6" textLength="134.2" clip-path="url(#terminal-4252448211-line-4)">╰─╯•╰─╴•╰─╴</text><text class="terminal-4252448211-r4" x="414.8" y="117.6" textLength="134.2" clip-path="url(#terminal-4252448211-line-4)">╶─╯&#160;&#160;╵•╶─╯K</text><text class="terminal-4252448211-r4" x="805.2" y="117.6" textLength="146.4" clip-path="url(#terminal-4252448211-line-4)">╶┴╴╶┴╴╰─╯╰─╯</text><text class="terminal-4252448211-r2" x="976" y="117.6" textLength="12.2" clip-path="url(#terminal-4252448211-line-4)">
</text><text class="terminal-4252448211-r1" x="0" y="142" textLength="976" clip-path="url(#terminal-4252448211-line-5)">▁▁▁▁▁▁▁▁▁▁▁▁▁▁▁▁▁▁▁▁▁▁▁▁▁▁▁▁▁▁▁▁▁▁▁▁▁▁▁▁▁▁▁▁▁▁▁▁▁▁▁▁▁▁▁▁▁▁▁▁▁▁▁▁▁▁▁▁▁▁▁▁▁▁▁▁▁▁▁▁</text><text class="terminal-4252448211-r2" x="976" y="142" textLength="12.2" clip-path="url(#terminal-4252448211-line-5)">
</text><text class="terminal-4252448211-r2" x="976" y="166.4" textLength="12.2" clip-path="url(#terminal-4252448211-line-6)">
</text><text class="terminal-4252448211-r2" x="976" y="190.8" textLength="12.2" clip-path="url(#terminal-4252448211-line-7)">
</text><text class="terminal-4252448211-r5" x="366" y="215.2" textLength="195.2" clip-path="url(#terminal-4252448211-line-8)">What&#160;is&#160;Textual?</text><text class="terminal-4252448211-r2" x="976" y="215.2" textLength="12.2" clip-path="url(#terminal-4252448211-line-8)">
</text><text class="terminal-4252448211-r2" x="976" y="239.6" textLength="12.2" clip-path="url(#terminal-4252448211-line-9)">
</text><text class="terminal-4252448211-r6" x="12.2" y="264" textLength="829.6" clip-path="url(#terminal-4252448211-line-10)">Snappy,&#160;keyboard-centric,&#160;applications&#160;that&#160;run&#160;in&#160;the&#160;terminal&#160;and&#160;</text><text class="terminal-4252448211-r7" x="841.8" y="264" textLength="36.6" clip-path="url(#terminal-4252448211-line-10)">the</text><text class="terminal-4252448211-r2" x="976" y="264" textLength="12.2" clip-path="url(#terminal-4252448211-line-10)">
</text><text class="terminal-4252448211-r7" x="12.2" y="288.4" textLength="36.6" clip-path="url(#terminal-4252448211-line-11)">web</text><text class="terminal-4252448211-r6" x="48.8" y="288.4" textLength="12.2" clip-path="url(#terminal-4252448211-line-11)">.</text><text class="terminal-4252448211-r2" x="976" y="288.4" textLength="12.2" clip-path="url(#terminal-4252448211-line-11)">
</text><text class="terminal-4252448211-r2" x="976" y="312.8" textLength="12.2" clip-path="url(#terminal-4252448211-line-12)">
</text><text class="terminal-4252448211-r6" x="12.2" y="337.2" textLength="305" clip-path="url(#terminal-4252448211-line-13)">🐍&#160;All&#160;you&#160;need&#160;is&#160;Python!</text><text class="terminal-4252448211-r2" x="976" y="337.2" textLength="12.2" clip-path="url(#terminal-4252448211-line-13)">
</text><text class="terminal-4252448211-r8" x="939.4" y="361.6" textLength="24.4" clip-path="url(#terminal-4252448211-line-14)">▇▇</text><text class="terminal-4252448211-r2" x="976" y="361.6" textLength="12.2" clip-path="url(#terminal-4252448211-line-14)">
</text><text class="terminal-4252448211-r1" x="12.2" y="386" textLength="927.2" clip-path="url(#terminal-4252448211-line-15)">▔▔▔▔▔▔▔▔▔▔▔▔▔▔▔▔▔▔▔▔▔▔▔▔▔▔▔▔▔▔▔▔▔▔▔▔▔▔▔▔▔▔▔▔▔▔▔▔▔▔▔▔▔▔▔▔▔▔▔▔▔▔▔▔▔▔▔▔▔▔▔▔▔▔▔▔</text><text class="terminal-4252448211-r2" x="976" y="386" textLength="12.2" clip-path="url(#terminal-4252448211-line-15)">
</text><text class="terminal-4252448211-r9" x="24.4" y="410.4" textLength="109.8" clip-path="url(#terminal-4252448211-line-16)">▼&#160;Welcome</text><text class="terminal-4252448211-r10" x="475.8" y="410.4" textLength="12.2" clip-path="url(#terminal-4252448211-line-16)">▌</text><text class="terminal-4252448211-r2" x="976" y="410.4" textLength="12.2" clip-path="url(#terminal-4252448211-line-16)">
</text><text class="terminal-4252448211-r10" x="475.8" y="434.8" textLength="12.2" clip-path="url(#terminal-4252448211-line-17)">▌</text><text class="terminal-4252448211-r11" x="500.2" y="434.8" textLength="146.4" clip-path="url(#terminal-4252448211-line-17)">GitHub&#160;Stars</text><text class="terminal-4252448211-r2" x="976" y="434.8" textLength="12.2" clip-path="url(#terminal-4252448211-line-17)">
</text><text class="terminal-4252448211-r10" x="475.8" y="459.2" textLength="12.2" clip-path="url(#terminal-4252448211-line-18)">▌</text><text class="terminal-4252448211-r6" x="500.2" y="459.2" textLength="414.8" clip-path="url(#terminal-4252448211-line-18)">Install&#160;httpx&#160;to&#160;update&#160;stars&#160;from</text><text class="terminal-4252448211-r2" x="976" y="459.2" textLength="12.2" clip-path="url(#terminal-4252448211-line-18)">
</text><text class="terminal-4252448211-r10" x="475.8" y="483.6" textLength="12.2" clip-path="url(#terminal-4252448211-line-19)">▌</text><text class="terminal-4252448211-r6" x="500.2" y="483.6" textLength="183" clip-path="url(#terminal-4252448211-line-19)">the&#160;GitHub&#160;API.</text><text class="terminal-4252448211-r2" x="976" y="483.6" textLength="12.2" clip-path="url(#terminal-4252448211-line-19)">
</text><text class="terminal-4252448211-r12" x="48.8" y="508" textLength="317.2" clip-path="url(#terminal-4252448211-line-20)">Welcome&#160;keyboard&#160;warriors!</text><text class="terminal-4252448211-r10" x="475.8" y="508" textLength="12.2" clip-path="url(#terminal-4252448211-line-20)">▌</text><text class="terminal-4252448211-r2" x="976" y="508" textLength="12.2" clip-path="url(#terminal-4252448211-line-20)">
</text><text class="terminal-4252448211-r10" x="475.8" y="532.4" textLength="12.2" clip-path="url(#terminal-4252448211-line-21)">▌</text><text class="terminal-4252448211-r6" x="500.2" y="532.4" textLength="24.4" clip-path="url(#terminal-4252448211-line-21)">$&#160;</text><text class="terminal-4252448211-r3" x="524.6" y="532.4" textLength="207.4" clip-path="url(#terminal-4252448211-line-21)">pip&#160;install&#160;httpx</text><text class="terminal-4252448211-r2" x="976" y="532.4" textLength="12.2" clip-path="url(#terminal-4252448211-line-21)">
</text><text class="terminal-4252448211-r6" x="48.8" y="556.8" textLength="427" clip-path="url(#terminal-4252448211-line-22)">This&#160;is&#160;a&#160;Textual&#160;app.&#160;Here&#x27;s&#160;what&#160;</text><text class="terminal-4252448211-r10" x="475.8" y="556.8" textLength="12.2" clip-path="url(#terminal-4252448211-line-22)">▌</text><text class="terminal-4252448211-r2" x="976" y="556.8" textLength="12.2" clip-path="url(#terminal-4252448211-line-22)">
</text><text class="terminal-4252448211-r13" x="0" y="581.2" textLength="36.6" clip-path="url(#terminal-4252448211-line-23)">&#160;c&#160;</text><text class="terminal-4252448211-r6" x="36.6" y="581.2" textLength="61" clip-path="url(#terminal-4252448211-line-23)">Code&#160;</text><text class="terminal-4252448211-r14" x="97.6" y="581.2" textLength="36.6" clip-path="url(#terminal-4252448211-line-23)">&#160;h&#160;</text><text class="terminal-4252448211-r15" x="134.2" y="581.2" textLength="61" clip-path="url(#terminal-4252448211-line-23)">Home&#160;</text><text class="terminal-4252448211-r13" x="195.2" y="581.2" textLength="36.6" clip-path="url(#terminal-4252448211-line-23)">&#160;g&#160;</text><text class="terminal-4252448211-r6" x="231.8" y="581.2" textLength="61" clip-path="url(#terminal-4252448211-line-23)">Game&#160;</text><text class="terminal-4252448211-r13" x="292.8" y="581.2" textLength="36.6" clip-path="url(#terminal-4252448211-line-23)">&#160;p&#160;</text><text class="terminal-4252448211-r6" x="329.4" y="581.2" textLength="109.8" clip-path="url(#terminal-4252448211-line-23)">Projects&#160;</text><text class="terminal-4252448211-r13" x="439.2" y="581.2" textLength="36.6" clip-path="url(#terminal-4252448211-line-23)">&#160;w&#160;</text><text class="terminal-4252448211-r6" x="475.8" y="581.2" textLength="97.6" clip-path="url(#terminal-4252448211-line-23)">Widgets&#160;</text><text class="terminal-4252448211-r13" x="573.4" y="581.2" textLength="48.8" clip-path="url(#terminal-4252448211-line-23)">&#160;^s&#160;</text><text class="terminal-4252448211-r6" x="622.2" y="581.2" textLength="134.2" clip-path="url(#terminal-4252448211-line-23)">Screenshot&#160;</text><text class="terminal-4252448211-r13" x="756.4" y="581.2" textLength="48.8" clip-path="url(#terminal-4252448211-line-23)">&#160;^a&#160;</text><text class="terminal-4252448211-r6" x="805.2" y="581.2" textLength="24.4" clip-path="url(#terminal-4252448211-line-23)">Ma</text><text class="terminal-4252448211-r16" x="829.6" y="581.2" textLength="12.2" clip-path="url(#terminal-4252448211-line-23)">▏</text><text class="terminal-4252448211-r13" x="841.8" y="581.2" textLength="24.4" clip-path="url(#terminal-4252448211-line-23)">^p</text><text class="terminal-4252448211-r6" x="866.2" y="581.2" textLength="48.8" clip-path="url(#terminal-4252448211-line-23)">&#160;pal</text><text class="terminal-4252448211-r6" x="915" y="581.2" textLength="48.8" clip-path="url(#terminal-4252448211-line-23)">ette</text>
    </g>
    </g>
</svg>
